<svg width="100%" height="100%" viewBox="0 0 30 27" fill="none" xmlns="http://www.w3.org/2000/svg">
<path fill-rule="evenodd" clip-rule="evenodd" d="M11.377 0.235204C4.61999 4.5747 0.866189 9.62535 0.115558 15.3874C-1.053 24.3575 6.96877 28.7481 11.0333 24.8031C15.0979 20.8583 12.6614 15.851 9.71828 14.4823C6.77514 13.1135 4.9753 13.5902 5.28926 11.7612C5.60321 9.93213 9.79042 4.86093 13.4691 2.49923C13.7131 2.29169 13.806 1.88899 13.571 1.58356C13.4164 1.38257 13.1132 0.988535 12.6614 0.401334C12.2663 -0.112138 11.8879 -0.0929278 11.377 0.235204Z" fill="white"/>
<path fill-rule="evenodd" clip-rule="evenodd" d="M27.166 0.235204C20.4091 4.5747 16.6553 9.62535 15.9046 15.3874C14.7361 24.3575 22.7579 28.7481 26.8224 24.8031C30.887 20.8583 28.4505 15.851 25.5074 14.4823C22.5642 13.1135 20.7643 13.5902 21.0784 11.7612C21.3923 9.93213 25.5795 4.86093 29.2582 2.49923C29.5022 2.29169 29.5951 1.88899 29.36 1.58356C29.2055 1.38257 28.9023 0.988535 28.4505 0.401334C28.0555 -0.112138 27.677 -0.0929278 27.166 0.235204Z" fill="white"/>
</svg>
