<svg width="100%" height="100%" viewBox="0 0 15 16" fill="none" xmlns="http://www.w3.org/2000/svg">
<path d="M3.86851 6.18185C4.05712 4.48439 5.4919 3.2002 7.1998 3.2002V3.2002C8.90771 3.2002 10.3425 4.48439 10.5311 6.18185L10.6822 7.54158C10.7129 7.81791 10.7282 7.95608 10.7538 8.09131C10.8157 8.41833 10.9227 8.7352 11.0716 9.03284C11.1332 9.15592 11.2048 9.27512 11.3478 9.51354L11.782 10.2371C12.1446 10.8415 12.3259 11.1436 12.1966 11.3719C12.0674 11.6002 11.715 11.6002 11.0102 11.6002H3.38938C2.68463 11.6002 2.33225 11.6002 2.203 11.3719C2.07375 11.1436 2.25504 10.8415 2.61763 10.2371L3.0518 9.51354C3.19485 9.27512 3.26637 9.15592 3.32796 9.03284C3.47692 8.7352 3.58387 8.41833 3.64578 8.09131C3.67137 7.95608 3.68672 7.81791 3.71743 7.54158L3.86851 6.18185Z" stroke="black" stroke-width="0.8"/>
<path d="M5.46133 11.8439C5.56389 12.2904 5.78987 12.685 6.10423 12.9664C6.41859 13.2479 6.80376 13.4004 7.2 13.4004C7.59624 13.4004 7.98141 13.2479 8.29577 12.9664C8.61013 12.685 8.83611 12.2904 8.93867 11.8439" stroke="black" stroke-width="0.8" stroke-linecap="round"/>
</svg>
