<svg width="100%" height="100%" viewBox="0 0 14 14" fill="none" xmlns="http://www.w3.org/2000/svg">
<g clip-path="url(#clip0_847_6542)">
<path d="M11.0668 4.53418H2.53346C1.94436 4.53418 1.4668 5.01174 1.4668 5.60085V10.9342C1.4668 11.5233 1.94436 12.0008 2.53346 12.0008H11.0668C11.6559 12.0008 12.1335 11.5233 12.1335 10.9342V5.60085C12.1335 5.01174 11.6559 4.53418 11.0668 4.53418Z" fill="#9A9A9A" stroke="#9A9A9A" stroke-width="1.6" stroke-linecap="round" stroke-linejoin="round"/>
<path d="M8.93464 12.0004V3.46706C8.93464 3.18416 8.82225 2.91285 8.62222 2.71281C8.42218 2.51277 8.15087 2.40039 7.86797 2.40039H5.73464C5.45174 2.40039 5.18043 2.51277 4.98039 2.71281C4.78035 2.91285 4.66797 3.18416 4.66797 3.46706V12.0004" stroke="#9A9A9A" stroke-width="1.6" stroke-linecap="round" stroke-linejoin="round"/>
</g>
<defs>
<clipPath id="clip0_847_6542">
<rect width="12.8" height="12.8" fill="white" transform="translate(0.400391 0.800781)"/>
</clipPath>
</defs>
</svg>
