<svg width="58" height="58" viewBox="0 0 58 58" fill="none" xmlns="http://www.w3.org/2000/svg">
<circle cx="29.0002" cy="29" r="28.8" fill="#FF5555"/>
<path d="M29 17L27.4382 23.2472C27.1334 24.4662 26.9811 25.0757 26.6637 25.5717C26.383 26.0104 26.0104 26.383 25.5717 26.6637C25.0757 26.9811 24.4662 27.1334 23.2472 27.4382L17 29L23.2472 30.5618C24.4662 30.8666 25.0757 31.0189 25.5717 31.3363C26.0104 31.617 26.383 31.9896 26.6637 32.4283C26.9811 32.9243 27.1334 33.5338 27.4382 34.7528L29 41L30.5618 34.7528C30.8666 33.5338 31.0189 32.9243 31.3363 32.4283C31.617 31.9896 31.9896 31.617 32.4283 31.3363C32.9243 31.0189 33.5338 30.8666 34.7528 30.5618L41 29L34.7528 27.4382C33.5338 27.1334 32.9243 26.9811 32.4283 26.6637C31.9896 26.383 31.617 26.0104 31.3363 25.5717C31.0189 25.0757 30.8666 24.4662 30.5618 23.2472L29 17Z" stroke="white" stroke-width="2.4" stroke-linecap="round" stroke-linejoin="round"/>
</svg>
