<svg width="21" height="20" viewBox="0 0 21 20" fill="none" xmlns="http://www.w3.org/2000/svg">
<g clip-path="url(#clip0_358_7939)">
<path d="M10.971 1.6665L9.88645 6.00483C9.67481 6.85138 9.56899 7.27465 9.3486 7.61908C9.15365 7.92373 8.89493 8.18246 8.59027 8.37741C8.24584 8.5978 7.82257 8.70362 6.97602 8.91526L2.6377 9.99984L6.97602 11.0844C7.82257 11.2961 8.24584 11.4019 8.59027 11.6223C8.89493 11.8172 9.15366 12.0759 9.3486 12.3806C9.56899 12.725 9.67481 13.1483 9.88645 13.9948L10.971 18.3332L12.0556 13.9948C12.2672 13.1483 12.3731 12.725 12.5935 12.3806C12.7884 12.0759 13.0471 11.8172 13.3518 11.6223C13.6962 11.4019 14.1195 11.2961 14.966 11.0844L19.3044 9.99984L14.966 8.91526C14.1195 8.70362 13.6962 8.5978 13.3518 8.37741C13.0471 8.18246 12.7884 7.92373 12.5935 7.61908C12.3731 7.27465 12.2672 6.85138 12.0556 6.00483L10.971 1.6665Z" stroke="white" stroke-width="2" stroke-linecap="round" stroke-linejoin="round"/>
</g>
<defs>
<clipPath id="clip0_358_7939">
<rect width="20" height="20" fill="white" transform="translate(0.970947)"/>
</clipPath>
</defs>
</svg>
