<svg width="100%" height="100%" viewBox="0 0 13 15" fill="none" xmlns="http://www.w3.org/2000/svg">
<path d="M6.80078 4.29492C7.54078 4.29492 8.13412 3.69492 8.13412 2.96159C8.13412 2.70826 8.06745 2.47492 7.94078 2.27492L6.80078 0.294922L5.66078 2.27492C5.53412 2.47492 5.46745 2.70826 5.46745 2.96159C5.46745 3.69492 6.06745 4.29492 6.80078 4.29492ZM9.86745 10.9549L9.15412 10.2416L8.43412 10.9549C7.56745 11.8216 6.04745 11.8283 5.17412 10.9549L4.46078 10.2416L3.73411 10.9549C3.30078 11.3883 2.72078 11.6283 2.10745 11.6283C1.62078 11.6283 1.17411 11.4749 0.800781 11.2216V14.2949C0.800781 14.6616 1.10078 14.9616 1.46745 14.9616H12.1341C12.5008 14.9616 12.8008 14.6616 12.8008 14.2949V11.2216C12.4274 11.4749 11.9808 11.6283 11.4941 11.6283C10.8808 11.6283 10.3008 11.3883 9.86745 10.9549V10.9549ZM10.8008 6.29492H7.46745V4.96159H6.13412V6.29492H2.80078C1.69411 6.29492 0.800781 7.18826 0.800781 8.29492V9.32159C0.800781 10.0416 1.38745 10.6283 2.10745 10.6283C2.45411 10.6283 2.78745 10.4949 3.02745 10.2483L4.45411 8.82826L5.87411 10.2483C6.36745 10.7416 7.22745 10.7416 7.72078 10.2483L9.14745 8.82826L10.5674 10.2483C10.8141 10.4949 11.1408 10.6283 11.4874 10.6283C12.2074 10.6283 12.7941 10.0416 12.7941 9.32159V8.29492C12.8008 7.18826 11.9074 6.29492 10.8008 6.29492Z" fill="#9A9A9A"/>
</svg>
