<svg width="100%" height="100%" viewBox="0 0 10 12" fill="none" xmlns="http://www.w3.org/2000/svg">
<path fill-rule="evenodd" clip-rule="evenodd" d="M0.400391 5.45872C0.400391 2.8828 2.57105 0.800781 5.19669 0.800781C7.82973 0.800781 10.0004 2.8828 10.0004 5.45872C10.0004 6.75677 9.52435 7.96185 8.74081 8.98326C7.87642 10.1099 6.81102 11.0916 5.6118 11.8621C5.33734 12.0402 5.08964 12.0537 4.78841 11.8621C3.58236 11.0916 2.51696 10.1099 1.65997 8.98326C0.875864 7.96185 0.400391 6.75677 0.400391 5.45872ZM3.61523 5.60311C3.61523 6.46605 4.32531 7.14475 5.19597 7.14475C6.0672 7.14475 6.78411 6.46605 6.78411 5.60311C6.78411 4.7469 6.0672 4.03516 5.19597 4.03516C4.32531 4.03516 3.61523 4.7469 3.61523 5.60311Z" fill="#9A9A9A"/>
</svg>
