<svg width="100%" height="100%" viewBox="0 0 32 32" fill="none" xmlns="http://www.w3.org/2000/svg">
<path d="M16 1.33334C14.9391 1.33334 13.9217 1.75477 13.1716 2.50492C12.4214 3.25506 12 4.27248 12 5.33334V16C12 17.0609 12.4214 18.0783 13.1716 18.8284C13.9217 19.5786 14.9391 20 16 20C17.0609 20 18.0783 19.5786 18.8284 18.8284C19.5786 18.0783 20 17.0609 20 16V5.33334C20 4.27248 19.5786 3.25506 18.8284 2.50492C18.0783 1.75477 17.0609 1.33334 16 1.33334V1.33334Z" stroke="#EFF0FA" stroke-width="2" stroke-linecap="round" stroke-linejoin="round"/>
<path d="M25.3332 13.3333V16C25.3332 18.4754 24.3498 20.8493 22.5995 22.5997C20.8492 24.35 18.4752 25.3333 15.9998 25.3333C13.5245 25.3333 11.1505 24.35 9.40017 22.5997C7.64983 20.8493 6.6665 18.4754 6.6665 16V13.3333" stroke="#EFF0FA" stroke-width="2" stroke-linecap="round" stroke-linejoin="round"/>
<path d="M16 25.3333V30.6667" stroke="#EFF0FA" stroke-width="2" stroke-linecap="round" stroke-linejoin="round"/>
<path d="M10.6665 30.6667H21.3332" stroke="#EFF0FA" stroke-width="2" stroke-linecap="round" stroke-linejoin="round"/>
</svg>
