<svg width="100%" height="100%" viewBox="0 0 40 40" fill="none" xmlns="http://www.w3.org/2000/svg">
<path d="M36.8333 15.1667C36.6666 9.5 32.1666 5 26.4999 5C24.6666 5 21.8333 6.33333 20.6666 8.5C20.4999 9 19.8333 9 19.6666 8.5C18.3333 6.5 15.6666 5.16667 13.6666 5.16667C8.16659 5.16667 3.49992 9.66667 3.33325 15.1667V15.5C3.33325 18.3333 4.49992 21 6.49992 23C6.49992 23 6.49992 23 6.49992 23.1667C6.66659 23.3333 14.6666 30.3333 18.3333 33.5C19.3333 34.3333 20.8333 34.3333 21.8333 33.5C25.4999 30.3333 33.3333 23.3333 33.6666 23.1667C33.6666 23.1667 33.6666 23.1667 33.6666 23C35.6666 21.1667 36.8333 18.5 36.8333 15.5V15.1667Z" fill="#A5A4E1"/>
</svg>
