<svg width="100%" height="100%" viewBox="0 0 20 19" fill="none" xmlns="http://www.w3.org/2000/svg">
<path fill-rule="evenodd" clip-rule="evenodd" d="M18.8555 12.5035L13.2155 2.06351C12.511 0.790245 11.1706 0 9.71548 0C8.26032 0 6.91995 0.790245 6.21548 2.06351L0.485475 12.4935C-0.187726 13.7322 -0.1591 15.2339 0.560821 16.4461C1.28074 17.6582 2.58563 18.4019 3.99548 18.4035H15.3355C16.7441 18.4035 18.0489 17.6626 18.7706 16.4529C19.4923 15.2432 19.5246 13.7431 18.8555 12.5035ZM8.85548 6.74351C8.85548 6.32929 9.19126 5.99351 9.60548 5.99351C10.0197 5.99351 10.3555 6.32929 10.3555 6.74351V9.83351C10.3555 10.2477 10.0197 10.5835 9.60548 10.5835C9.19126 10.5835 8.85548 10.2477 8.85548 9.83351V6.74351ZM9.61548 13.4935C10.0297 13.4935 10.3655 13.1577 10.3655 12.7435L10.3555 12.7335C10.3555 12.3248 10.0242 11.9935 9.61548 11.9935C9.20351 11.9989 8.87086 12.3315 8.86548 12.7435C8.86548 13.1577 9.20126 13.4935 9.61548 13.4935Z" fill="black"/>
</svg>
