<svg width="100%" height="100%" viewBox="0 0 28 28" fill="none" xmlns="http://www.w3.org/2000/svg">
<path d="M11.9249 4.80288L2.43846 20.6397C2.24287 20.9784 2.13938 21.3624 2.13828 21.7535C2.13719 22.1447 2.23853 22.5293 2.43221 22.8691C2.6259 23.2089 2.90519 23.492 3.24229 23.6904C3.57939 23.8888 3.96255 23.9954 4.35366 23.9997H23.3265C23.7176 23.9954 24.1007 23.8888 24.4378 23.6904C24.7749 23.492 25.0542 23.2089 25.2479 22.8691C25.4416 22.5293 25.5429 22.1447 25.5418 21.7535C25.5407 21.3624 25.4372 20.9784 25.2417 20.6397L15.7553 4.80288C15.5556 4.47372 15.2745 4.20158 14.939 4.0127C14.6035 3.82383 14.225 3.72461 13.8401 3.72461C13.4551 3.72461 13.0766 3.82383 12.7411 4.0127C12.4056 4.20158 12.1245 4.47372 11.9249 4.80288V4.80288Z" stroke="#EF3E5C" stroke-width="2.24" stroke-linecap="round" stroke-linejoin="round"/>
<path d="M13.8401 10.5596V15.0396" stroke="#EF3E5C" stroke-width="2.24" stroke-linecap="round" stroke-linejoin="round"/>
<path d="M13.8401 19.5195H13.8513" stroke="#EF3E5C" stroke-width="2.24" stroke-linecap="round" stroke-linejoin="round"/>
</svg>
