<svg width="100%" height="100%" viewBox="0 0 24 24" fill="none" xmlns="http://www.w3.org/2000/svg">
<path fill-rule="evenodd" clip-rule="evenodd" d="M20.856 15.5035L15.216 5.06351C14.5115 3.79024 13.1711 3 11.716 3C10.2608 3 8.92044 3.79024 8.21596 5.06351L2.48596 15.4935C1.81276 16.7322 1.84139 18.2339 2.56131 19.4461C3.28123 20.6582 4.58612 21.4019 5.99596 21.4035H17.336C18.7446 21.4035 20.0494 20.6626 20.7711 19.4529C21.4928 18.2432 21.5251 16.7431 20.856 15.5035ZM10.856 9.74351C10.856 9.32929 11.1918 8.99351 11.606 8.99351C12.0202 8.99351 12.356 9.32929 12.356 9.74351V12.8335C12.356 13.2477 12.0202 13.5835 11.606 13.5835C11.1918 13.5835 10.856 13.2477 10.856 12.8335V9.74351ZM11.616 16.4935C12.0302 16.4935 12.366 16.1577 12.366 15.7435L12.356 15.7335C12.356 15.3248 12.0247 14.9935 11.616 14.9935C11.204 14.9989 10.8713 15.3315 10.866 15.7435C10.866 16.1577 11.2018 16.4935 11.616 16.4935Z" fill="white"/>
</svg>
