<svg width="100%" height="100%" viewBox="0 0 20 21" fill="none" xmlns="http://www.w3.org/2000/svg">
<path d="M10.0005 2.50793L8.95929 6.67273C8.75612 7.48541 8.65453 7.89176 8.44296 8.22241C8.25581 8.51488 8.00743 8.76326 7.71496 8.9504C7.38431 9.16198 6.97797 9.26357 6.16528 9.46674L2.00049 10.5079L6.16528 11.5491C6.97797 11.7523 7.38431 11.8539 7.71496 12.0655C8.00743 12.2526 8.25581 12.501 8.44296 12.7935C8.65453 13.1241 8.75612 13.5305 8.95929 14.3431L10.0005 18.5079L11.0417 14.3431C11.2449 13.5305 11.3464 13.1241 11.558 12.7935C11.7452 12.501 11.9935 12.2526 12.286 12.0655C12.6167 11.8539 13.023 11.7523 13.8357 11.5491L18.0005 10.5079L13.8357 9.46674C13.023 9.26356 12.6167 9.16198 12.286 8.9504C11.9935 8.76326 11.7452 8.51488 11.558 8.22241C11.3464 7.89176 11.2449 7.48541 11.0417 6.67273L10.0005 2.50793Z" stroke="#FF5555" stroke-width="1.6" stroke-linecap="round" stroke-linejoin="round"/>
</svg>
